<svg xmlns="http://www.w3.org/2000/svg" id="Layer_1" data-name="Layer 1" style="background-color:transparent;" viewBox="135.61 418.66 728.68 162.55">
  <defs>
    <style>.cls-1{fill:#fff;}</style>
  </defs>
  <rect width="1000" height="1000" fill="none"/>
  <path class="cls-1" d="M337.55,520.6l-11-18.29H318.8V520.6h-9.57V469.54h22c9.9,0,17.38,7.18,17.38,16.7a15.48,15.48,0,0,1-10.23,14.83l-1.39.54,12.09,19ZM318.8,494.29H331a7.94,7.94,0,0,0,0-15.87H318.8Z"/>
  <path class="cls-1" d="M372.68,521.53c-10.18,0-17.85-8.37-17.85-19.48s7.67-19.47,17.85-19.47a15.09,15.09,0,0,1,11.07,4.51l2.1,2.16v-5.74h8.87V520.6h-8.87v-5.74l-2.1,2.16A15.09,15.09,0,0,1,372.68,521.53Zm2.25-30.47a11,11,0,1,0,10.92,11A10.67,10.67,0,0,0,374.93,491.06Z"/>
  <path class="cls-1" d="M433.31,520.6V500.19c0-5.46-3.58-9.13-8.9-9.13-5.52,0-9.37,3.82-9.37,9.28V520.6h-8.87V483.51H415v5.74l2.1-2.16a15,15,0,0,1,11.14-4.51c8.45,0,13.9,5.42,13.9,13.81V520.6Z"/>
  <polygon class="cls-1" points="476.95 520.6 466.03 507.25 461.8 511.81 461.8 520.6 452.93 520.6 452.93 467.22 461.8 467.22 461.8 500.25 476.61 483.51 487.92 483.51 472.35 500.45 488.68 520.6 476.95 520.6"/>
  <path class="cls-1" d="M496.13,520.6V483.51H505V520.6ZM500.56,476a5.72,5.72,0,1,1,5.83-5.75A5.57,5.57,0,0,1,500.56,476Z"/>
  <path class="cls-1" d="M543.58,520.6V500.19c0-5.46-3.58-9.13-8.9-9.13-5.52,0-9.37,3.82-9.37,9.28V520.6h-8.87V483.51h8.87v5.74l2.11-2.16a15,15,0,0,1,11.13-4.51c8.45,0,13.9,5.42,13.9,13.81V520.6Z"/>
  <path class="cls-1" d="M591.56,535.13c-.9-2.46-3.33-4-6.55-4H572.68c-7,0-11.49-3.83-11.49-9.78a10.81,10.81,0,0,1,4.84-9.19l1.37-.83-1.16-1.11a15.57,15.57,0,0,1-4.82-11.43c0-9.25,7.51-16.22,17.46-16.22a20.73,20.73,0,0,1,7.83,1.54l1.28.52.37-1.33c1-3.81,4.54-6.09,9.37-6.09h2.1v8h-1.56c-2.45,0-4.38,1.3-4.9,3.31l-.15.54.32.46a15.93,15.93,0,0,1,2.88,9.24c0,9.24-7.54,16.22-17.54,16.22a19.72,19.72,0,0,1-5.47-.73l-.55-.16-.47.32a4.87,4.87,0,0,0-2.33,4c0,2.45,2,4.17,4.79,4.17h12.33c7.08,0,12,3.59,13.67,9.92Zm-12.68-44.3a8,8,0,1,0,0,15.94c4.77,0,8.36-3.43,8.36-8S583.65,490.83,578.88,490.83Z"/>
  <path class="cls-1" d="M619.75,521.53a24.89,24.89,0,0,1-15.3-5l3.83-5.29A18.14,18.14,0,0,0,619.36,515c4.7,0,7.51-1.65,7.51-4.4,0-3.31-3.89-4.21-8-5.15-6.39-1.43-13.62-3.05-13.62-11.38s7.85-11.48,15.21-11.48a24.44,24.44,0,0,1,14,4.26l-3.85,5.33a17.88,17.88,0,0,0-9.78-3.05c-4.21,0-6.73,1.53-6.73,4.09,0,3.3,3.9,4.13,8,5,7.17,1.53,13.6,3.54,13.6,11.29C635.73,518.38,627.12,521.53,619.75,521.53Z"/>
  <path class="cls-1" d="M646.38,521.05h10.46V501.12a.78.78,0,0,1,.78-.78h19.3v-9.76h-19.3a.78.78,0,0,1-.78-.78V479.64a.78.78,0,0,1,.78-.78H680V469.1H646.38Z"/>
  <path class="cls-1" d="M712.35,486.24a.78.78,0,0,1-.49.72.79.79,0,0,1-.29.06.82.82,0,0,1-.57-.24,15.49,15.49,0,0,0-11.37-4.65c-10.43,0-18.3,8.57-18.3,19.92S689.2,522,699.63,522A15.51,15.51,0,0,0,711,517.33a.76.76,0,0,1,.56-.24.62.62,0,0,1,.29.07.76.76,0,0,1,.49.72V521h9.76v-38h-9.76ZM701.87,512.6a10.55,10.55,0,1,1,10.48-10.55A10.23,10.23,0,0,1,701.87,512.6Z"/>
  <path class="cls-1" d="M748.3,491.5a10.32,10.32,0,0,1,8.22,3.92l.52.66,8.5-5.15-.61-.83c-3.79-5.14-9.69-8-16.63-8-11.72,0-20.55,8.57-20.55,19.92S736.58,522,748.3,522c6.94,0,12.84-2.83,16.62-8l.62-.83L757,508l-.52.66a10.53,10.53,0,1,1-8.22-17.19Z"/>
  <path class="cls-1" d="M783.47,482.28v-9h-9.76v9a.78.78,0,0,1-.78.78h-5.19v8.75h5.19a.78.78,0,0,1,.78.78V509c0,8.39,4.65,13,13.1,13a15.2,15.2,0,0,0,6.24-1.16l.58-.24v-8.85l-1.22.38a10.72,10.72,0,0,1-3.19.5c-3.65,0-5.75-2-5.75-5.51V492.59a.78.78,0,0,1,.78-.78h9.38v-8.75h-9.38A.78.78,0,0,1,783.47,482.28Z"/>
  <path class="cls-1" d="M816.8,482.13c-11.71,0-20.55,8.57-20.55,19.92S805.09,522,816.8,522s20.54-8.57,20.54-19.93S828.51,482.13,816.8,482.13Zm0,30.47a10.55,10.55,0,1,1,10.47-10.55A10.28,10.28,0,0,1,816.8,512.6Z"/>
  <path class="cls-1" d="M863.35,482.44a12.92,12.92,0,0,0-10.09,4.85.78.78,0,0,1-.59.27.76.76,0,0,1-.27-.05.78.78,0,0,1-.51-.73v-3.72h-9.76v38h9.76V503.37c0-6.79,4.28-10.85,11.46-10.86h.94V482.44Z"/>
  <path class="cls-1" d="M278.63,522a5.94,5.94,0,0,0,7.45-3.89,53.83,53.83,0,0,0-26.37-63.72l-4.44,11.11a41.93,41.93,0,0,1,19.47,49.06A5.94,5.94,0,0,0,278.63,522Z"/>
  <path class="cls-1" d="M208.19,481.41l10.7,5.75a21.65,21.65,0,0,1,15.89-6.93,21.07,21.07,0,0,1,2.65.16l4.5-11.28a33.67,33.67,0,0,0-33.74,12.3Z"/>
  <path class="cls-1" d="M203,491.13a33.63,33.63,0,0,0,31.83,44.45c1,0,2.09-.06,3.12-.15a5.94,5.94,0,0,0-1.09-11.83c-.67,0-1.35.09-2,.09a21.74,21.74,0,0,1-21.13-26.81Z"/>
  <path class="cls-1" d="M234.78,460.08A41.24,41.24,0,0,1,245,461.36l4.43-11.12A53.74,53.74,0,0,0,190.3,471.8l10.53,5.66A41.86,41.86,0,0,1,234.78,460.08Z"/>
  <path class="cls-1" d="M311.41,565.15,290,543.7A9.52,9.52,0,0,0,282.2,541l-19.82-19.82a33.63,33.63,0,0,0-10.2-47.95l-4.5,11.28a21.72,21.72,0,0,1,2.87,32.41l-.44.39a6,6,0,0,0,0,8.41l9.78,9.77a41.88,41.88,0,0,1-64.3-48.29l-10.53-5.66a53.76,53.76,0,0,0,83.3,62.42l5.43,5.44a9.51,9.51,0,0,0,2.73,7.77L298,578.59a9.51,9.51,0,0,0,13.45-13.44Z"/>
  <path class="cls-1" d="M183.27,477h0L222,497.8h0a13.62,13.62,0,0,0-.66,4.16,13.47,13.47,0,1,0,20.59-11.41h0L260.08,445h0a13.3,13.3,0,1,0-10.67-13,13.27,13.27,0,0,0,6.24,11.25h0l-18.18,45.58a14,14,0,0,0-2.69-.27,13.47,13.47,0,0,0-10.54,5.09h0l-38.7-20.78h0a13.45,13.45,0,0,0,.64-4.08A13.3,13.3,0,1,0,166,480.1h0l-14.64,38.77h0a13.33,13.33,0,1,0,4.46,1.69h0l14.64-38.77h0A13.14,13.14,0,0,0,183.27,477Z"/>
</svg>